{
  "title": "The Block - S12E30 - Challenge Day",
  "uid": 16006993,
  "size": 409592086,
  "categoryP": "video",
  "categoryS": "tv_shows",
  "magnet": "?xt=urn:btih:7249add0c9e857fdfadf2e9e042044d4ee118fd6&amp;dn=The+Block+-+S12E30+-+Challenge+Day&amp;tr=udp%3A%2F%2Ftracker.leechers-paradise.org%3A6969&amp;tr=udp%3A%2F%2Fzer0day.ch%3A1337&amp;tr=udp%3A%2F%2Fopen.demonii.com%3A1337&amp;tr=udp%3A%2F%2Ftracker.coppersurfer.tk%3A6969&amp;tr=udp%3A%2F%2Fexodus.desync.com%3A6969",
  "seeders": 42,
  "leechers": 8,
  "uploader": "Bullrout",
  "files": 1,
  "time": 1476194548,
  "description": "The Block - S12E30 - Challenge Day\r\n\r\nThere's a chance for one team to win $5000 cash. With the help of a craftsman, each team must build a dining table for their terrace, in a theme allocated to them. Block All Stars Dan and Dani are guest judges.\r\n\r\nComplete name : The Block - S12E30 - Challenge Day.mp4\r\nFormat : MPEG-4\r\nFormat profile : Base Media / Version 2\r\nCodec ID : mp42 (mp42/isom/avc1)\r\nFile size : 391 MiB\r\nDuration : 49 min 20 s\r\nOverall bit rate mode : Variable\r\nOverall bit rate : 1 107 kb/s\r\n\r\nVideo\r\nID : 2\r\nFormat : AVC\r\nFormat/Info : Advanced Video Codec\r\nFormat profile :   \r\nFormat settings, CABAC : Yes\r\nFormat settings, ReFrames : 3 frames\r\nCodec ID : avc1\r\nCodec ID/Info : Advanced Video Coding\r\nDuration : 49 min 20 s\r\nBit rate mode : Variable\r\nBit rate : 975 kb/s\r\nMaximum bit rate : 1 000 kb/s\r\nWidth : 720 pixels\r\nHeight : 404 pixels\r\nDisplay aspect ratio : 16:9\r\nOriginal display aspect ratio : 16:9\r\nFrame rate mode : Constant\r\nFrame rate : 25.000 FPS\r\nStandard : PAL\r\nColor space : YUV\r\nChroma subsampling : 4:2:0\r\nBit depth : 8 bits\r\nScan type : Progressive\r\nBits/(Pixel*Frame) : 0.134\r\nStream size : 344 MiB (88%)\r\nWriting library : x264 core 112\r\nColor range : Limited\r\nColor primaries : BT.601 PAL\r\nTransfer characteristics : BT.470 System B, BT.470 System G\r\nMatrix coefficients : BT.601\r\n\r\nAudio\r\nID : 1\r\nFormat : AAC\r\nFormat/Info : Advanced Audio Codec\r\nFormat profile : LC\r\nCodec ID : 40\r\nDuration : 49 min 20 s\r\nBit rate mode : Variable\r\nBit rate : 128 kb/s\r\nMaximum bit rate : 576 kb/s\r\nChannel(s) : 2 channels\r\nChannel positions : Front: L R\r\nSampling rate : 48.0 kHz\r\nFrame rate : 46.875 FPS (1024 spf)\r\nCompression mode : Lossy\r\nStream size : 45.2 MiB (12%)",
  "parsed": {
    "xt": "urn:btih:7249add0c9e857fdfadf2e9e042044d4ee118fd6",
    "dn": "The Block - S12E30 - Challenge Day",
    "tr": [
      "udp://exodus.desync.com:6969",
      "udp://open.demonii.com:1337",
      "udp://tracker.coppersurfer.tk:6969",
      "udp://tracker.leechers-paradise.org:6969",
      "udp://zer0day.ch:1337"
    ],
    "infoHash": "7249add0c9e857fdfadf2e9e042044d4ee118fd6",
    "infoHashBuffer": {
      "type": "Buffer",
      "data": [
        114,
        73,
        173,
        208,
        201,
        232,
        87,
        253,
        250,
        223,
        46,
        158,
        4,
        32,
        68,
        212,
        238,
        17,
        143,
        214
      ]
    },
    "name": "The Block - S12E30 - Challenge Day",
    "announce": [
      "udp://exodus.desync.com:6969",
      "udp://open.demonii.com:1337",
      "udp://tracker.coppersurfer.tk:6969",
      "udp://tracker.leechers-paradise.org:6969",
      "udp://zer0day.ch:1337"
    ],
    "urlList": []
  },
  "previous": 10,
  "peers": 16,
  "last_updated": "2016-12-27T03:45:42.023Z"
}